<?xml version="1.0" encoding="utf-8"?>
<!-- Generator: Adobe Illustrator 26.0.3, SVG Export Plug-In . SVG Version: 6.00 Build 0)  -->
<svg version="1.1" id="Layer_1" xmlns="http://www.w3.org/2000/svg" xmlns:xlink="http://www.w3.org/1999/xlink" x="0px" y="0px"
	 viewBox="0 0 160 160" style="enable-background:new 0 0 160 160;" xml:space="preserve">
<style type="text/css">
	.st0{fill:#000A12;}
	.st1{fill:#D71D1D;}
</style>
<g>
	<path class="st0" d="M100.83,84.13l-7.69,4.5l-55.82,32.49l-7.69,4.46L7.69,138.33L0,142.83V0l7.69,4.46v124.91l21.93-12.75
		l7.69-4.5l48.09-27.99L37.32,56.14v-8.96l55.82,32.49L100.83,84.13z"/>
	<polygon class="st1" points="160,84.13 152.31,88.63 130.42,101.34 122.72,105.84 37.32,155.54 29.62,160 29.62,151.08 
		37.32,146.59 115.03,101.38 122.72,96.88 144.61,84.13 122.72,71.41 115.03,66.92 37.32,21.71 37.32,112.12 29.62,116.62 
		29.62,8.26 37.32,12.72 122.72,62.46 130.42,66.92 152.31,79.67 	"/>
</g>
</svg>
